Coordinates
version=1
nRows=15
nColumns=42
inDegrees=yes

Units are S.I. units (second, meters, Newtons, ...)
If the header above contains a line with 'inDegrees', this indicates whether rotational values are in degrees (yes) or radians (no).

endheader
time	pelvis_tilt	pelvis_list	pelvis_rotation	pelvis_tx	pelvis_ty	pelvis_tz	hip_flexion_r	hip_adduction_r	hip_rotation_r	knee_angle_r	knee_adduction_r	knee_angle_r_beta	ankle_angle_r	subtalar_angle_r	mtp_angle_r	hip_flexion_l	hip_adduction_l	hip_rotation_l	knee_angle_l	knee_adduction_l	knee_angle_l_beta	ankle_angle_l	subtalar_angle_l	mtp_angle_l	lumbar_extension	lumbar_bending	lumbar_rotation	arm_flex_r	arm_add_r	arm_rot_r	elbow_flex_r	pro_sup_r	wrist_flex_r	wrist_dev_r	arm_flex_l	arm_add_l	arm_rot_l	elbow_flex_l	pro_sup_l	wrist_flex_l	wrist_dev_l
      1.32000000	     20.72890064	      3.27190823	      2.78058307	      0.02700963	      0.93726964	     -0.26163099	    -22.83863631	     -9.78345334	    -17.14972704	     54.61675923	     -2.13522324	      0.95324228	     -3.05784767	     13.75576899	     -7.67591323	     -6.90230825	      8.04010621	     -5.75382711	     24.58248080	     -5.13051552	      0.42904523	     17.70461763	      3.10411470	     -7.67591323	    -32.33537025	     -3.93758754	      3.31737444	     10.19723878	    -11.73158868	    -19.33588732	     28.40999943	     90.00000001	      0.00000000	      0.00000000	     -3.60586401	    -17.45887215	      2.40836081	     70.01209713	     90.00000001	      0.00000000	      0.00000000
      1.33000000	     20.73072724	      3.10846393	      2.78656335	      0.03196939	      0.93762980	     -0.26341330	    -21.68460440	     -9.88148719	    -15.69440410	     56.64627268	     -1.12829551	      0.98866397	     -2.66178467	     10.37641093	     -7.66242622	     -7.14110390	      7.93147868	     -5.63686324	     24.85528363	     -5.01064212	      0.43380654	     17.94718675	      2.81633027	     -7.66242622	    -32.44568670	     -3.81559208	      3.36610513	      9.95335782	    -11.72641269	    -20.88912901	     27.89310418	     90.00000001	      0.00000000	      0.00000000	     -3.37453837	    -17.55087004	      2.50403436	     70.15112545	     90.00000001	      0.00000000	      0.00000000
      1.34000000	     20.78482643	      3.03439728	      2.75162406	      0.03691518	      0.93803436	     -0.26515106	    -20.53221474	     -9.99159043	    -15.64850486	     58.44255232	     -1.49969164	      1.02001496	     -1.58325685	      9.04475667	     -7.65307067	     -7.55880877	      7.94225979	     -5.05805211	     24.92155350	     -4.72035995	      0.43496316	     18.10144308	      2.11346121	     -7.65307067	    -32.60691340	     -3.79057023	      3.36247637	      9.59633933	    -11.80032078	    -21.63305688	     27.62152230	     90.00000001	      0.00000000	      0.00000000	     -3.18323449	    -17.66831576	      2.54142473	     70.36573265	     90.00000001	      0.00000000	      0.00000000
      1.35000000	     20.99995871	      2.82293715	      2.66251651	      0.04191456	      0.93874895	     -0.26660565	    -19.57880661	     -9.86222116	    -15.78870184	     59.85702908	     -2.14382283	      1.04470224	     -0.18310323	      8.14882274	     -7.65039442	     -8.19421255	      7.73787707	     -4.67260113	     24.88243564	     -4.38737435	      0.43428043	     18.42940455	      1.90424253	     -7.65039442	    -32.91661316	     -3.65813222	      3.46569131	      9.16323345	    -11.96605701	    -21.80651415	     27.48158765	     90.00000001	      0.00000000	      0.00000000	     -3.00246146	    -17.75454291	      2.49152877	     70.60441424	     90.00000001	      0.00000000	      0.00000000
      1.36000000	     21.10915330	      2.68195941	      2.60684878	      0.04663053	      0.93929619	     -0.26813306	    -18.47228955	     -9.80921746	    -16.02214110	     61.18811452	     -2.76439770	      1.06793406	      1.40840958	      7.17225158	     -7.64741525	     -8.69123234	      7.64271904	     -4.13286822	     24.85883082	     -4.05316919	      0.43386845	     18.61442583	      1.35485274	     -7.64741525	    -33.14288089	     -3.57666980	      3.46312179	      8.81458396	    -12.07915981	    -22.06765177	     27.30529178	     90.00000001	      0.00000000	      0.00000000	     -2.80971120	    -17.85711641	      2.49171211	     70.80212960	     90.00000001	      0.00000000	      0.00000000
      1.37000000	     21.10193639	      2.78349954	      2.56182652	      0.05106766	      0.93973599	     -0.26990358	    -17.21966083	    -10.09467117	    -16.31517888	     62.46159180	     -3.26488170	      1.09016043	      3.00640386	      6.44986754	     -7.63874774	     -9.22570725	      7.92725042	     -2.59480362	     24.54853523	     -3.50328593	      0.42845277	     17.98426784	     -1.16104720	     -7.63874774	    -33.29732465	     -3.72307737	      3.32542809	      8.65482391	    -12.05055177	    -23.33852471	     26.86211797	     90.00000001	      0.00000000	      0.00000000	     -2.58865780	    -18.00565351	      2.54116926	     70.93671488	     90.00000001	      0.00000000	      0.00000000
      1.38000000	     21.36549242	      2.54604080	      2.44377927	      0.05571494	      0.94061311	     -0.27106962	    -16.30804807	     -9.80316738	    -16.46340942	     63.17171231	     -3.90329737	      1.10255437	      4.65958352	      5.83261398	     -7.63671243	     -9.97056294	      7.69782972	     -2.34148131	     24.30576557	     -3.23767094	      0.42421564	     18.19444608	     -1.29076014	     -7.63671243	    -33.67693637	     -3.59129541	      3.41408703	      8.31917312	    -12.17295415	    -23.51549619	     26.70519158	     90.00000001	      0.00000000	      0.00000000	     -2.40681425	    -18.09254593	      2.44771431	     71.10081255	     90.00000001	      0.00000000	      0.00000000
      1.39000000	     21.49728774	      2.38752377	      2.37944623	      0.06013465	      0.94126726	     -0.27234313	    -15.23392436	     -9.58260083	    -16.68824289	     63.77001803	     -4.53117227	      1.11299678	      6.33432403	      5.40953431	     -7.63437927	    -10.56402278	      7.57098066	     -1.98558872	     24.05410982	     -2.98019578	      0.41982342	     18.29987664	     -1.58646952	     -7.63437927	    -33.94279097	     -3.51256404	      3.38828414	      8.03150368	    -12.25283377	    -23.77542018	     26.53078558	     90.00000001	      0.00000000	      0.00000000	     -2.23243406	    -18.20739816	      2.39550557	     71.24881730	     90.00000001	      0.00000000	      0.00000000
      1.40000000	     21.66470216	      2.19243570	      2.37307350	      0.06433466	      0.94191453	     -0.27377389	    -14.19208916	     -9.35486871	    -16.76194947	     64.16322724	     -4.84483467	      1.11985957	      7.34103805	      5.22908408	     -7.63282996	    -11.12171637	      7.46099650	     -1.89426826	     23.91943484	     -3.00743397	      0.41747289	     18.41078121	     -1.71201261	     -7.63282996	    -34.26932593	     -3.34277624	      3.32931620	      7.75680375	    -12.37115199	    -23.89517111	     26.44267064	     90.00000001	      0.00000000	      0.00000000	     -2.02018264	    -18.30081856	      2.33704713	     71.35828740	     90.00000001	      0.00000000	      0.00000000
      1.41000000	     21.67667623	      2.08970048	      2.24580710	      0.06866754	      0.94237728	     -0.27490196	    -12.99226647	     -9.06431372	    -16.83305886	     64.27799580	     -5.51161344	      1.12186266	      9.16472752	      4.97726957	     -7.63108003	    -11.64390060	      7.42818898	     -1.69028781	     23.48067570	     -2.81716465	      0.40981510	     18.56730322	     -1.93712739	     -7.63108003	    -34.38621884	     -3.35880820	      3.32681940	      7.48004639	    -12.44348124	    -24.13758917	     26.20641602	     90.00000001	      0.00000000	      0.00000000	     -1.91329082	    -18.42399238	      2.28686506	     71.47601606	     90.00000001	      0.00000000	      0.00000000
      1.42000000	     21.70466751	      2.33587869	      2.25194203	      0.07286470	      0.94288265	     -0.27652835	    -11.88598140	     -9.26539562	    -17.79804410	     64.12563441	     -6.68000366	      1.11920346	     11.05852148	      7.32956952	     -7.62264043	    -12.37183686	      7.82979518	     -0.50005877	     22.71689671	     -2.44187437	      0.39648464	     17.81625317	     -3.54238017	     -7.62264043	    -34.56345165	     -3.62924688	      3.01092374	      7.51895085	    -12.24785468	    -26.21626359	     25.67769345	     90.00000001	      0.00000000	      0.00000000	     -1.76678233	    -18.63510035	      2.27232182	     71.57178249	     90.00000001	      0.00000000	      0.00000000
      1.43000000	     21.69075923	      2.19963687	      2.23634104	      0.07691465	      0.94323851	     -0.27772676	    -10.68760427	     -8.90761330	    -17.64900961	     63.86203898	     -6.93935434	      1.11460285	     11.98877369	      7.19289197	     -7.62047276	    -12.76120784	      7.75615026	     -0.58630025	     22.45145864	     -2.46105279	      0.39185188	     18.00402529	     -3.45368198	     -7.62047276	    -34.68256609	     -3.55957299	      2.93377987	      7.24967895	    -12.31019074	    -26.39485532	     25.55286645	     90.00000001	      0.00000000	      0.00000000	     -1.62315079	    -18.75457275	      2.21699552	     71.62514669	     90.00000001	      0.00000000	      0.00000000
      1.44000000	     21.65707632	      2.12518543	      2.21420700	      0.08098237	      0.94356278	     -0.27897764	     -9.53098344	     -8.62095524	    -17.50589754	     63.33999425	     -7.15910946	      1.10549145	     12.95585021	      7.62614311	     -7.61763560	    -13.16142057	      7.74356128	     -0.57508215	     22.12293648	     -2.40796299	      0.38611808	     18.13102279	     -3.26567637	     -7.61763560	    -34.76236665	     -3.54253880	      2.81947275	      7.02618270	    -12.34783818	    -26.75977203	     25.32892899	     90.00000001	      0.00000000	      0.00000000	     -1.51758641	    -18.89163446	      2.17860568	     71.65720810	     90.00000001	      0.00000000	      0.00000000
      1.45000000	     21.48729252	      2.09728764	      2.30718650	      0.08481512	      0.94363195	     -0.28037974	     -8.24925397	     -8.37057200	    -17.25588598	     62.67919482	     -7.12848814	      1.09395832	     13.22180522	      7.73519606	     -7.61601705	    -13.25714222	      7.80738063	     -0.70943086	     22.09925543	     -2.53943505	      0.38570477	     18.22649948	     -3.13960905	     -7.61601705	    -34.73901193	     -3.53557599	      2.58206603	      6.70313368	    -12.36227067	    -26.79983278	     25.39064067	     90.00000001	      0.00000000	      0.00000000	     -1.38152168	    -19.02022236	      2.13432470	     71.72666635	     90.00000001	      0.00000000	      0.00000000
      1.46000000	     21.32134198	      2.08203004	      2.37137562	      0.08855897	      0.94360952	     -0.28187630	     -6.96619408	     -8.15201082	    -16.98676233	     61.94910907	     -7.09658944	      1.08121592	     13.48156294	      7.85810320	     -7.61451749	    -13.34748838	      7.88241512	     -0.82374888	     22.09196468	     -2.59726913	      0.38557752	     18.31409571	     -2.99152427	     -7.61451749	    -34.71569961	     -3.50610433	      2.36395756	      6.39960405	    -12.47557500	    -26.82968991	     25.45209816	     90.00000001	      0.00000000	      0.00000000	     -1.24399276	    -19.18680444	      2.07703695	     71.78238403	     90.00000001	      0.00000000	      0.00000000
